<svg display="none">
		<symbol id="img-group-2">
			<path xmlns="http://www.w3.org/2000/svg" fill="none" stroke="#00b956" stroke-miterlimit="50" stroke-width="2" d="M17.8 1c-8.284 0-15 6.716-15 15 0 2.16.465 4.208 1.287 6.064L1.18 28.076v0l2.352 2.804v0l6.752-1.912A14.92 14.92 0 0 0 17.8 31c8.284 0 15-6.716 15-15 0-8.284-6.716-15-15-15z"/><path xmlns="http://www.w3.org/2000/svg" fill="none" stroke="#00b956" stroke-miterlimit="50" stroke-width="2" d="M9.8 20v-8"/><path xmlns="http://www.w3.org/2000/svg" fill="none" stroke="#00b956" stroke-miterlimit="50" stroke-width="2" d="M17.8 10v12"/><path xmlns="http://www.w3.org/2000/svg" fill="none" stroke="#00b956" stroke-miterlimit="50" stroke-width="2" d="M13.8 14v4"/><path xmlns="http://www.w3.org/2000/svg" fill="none" stroke="#00b956" stroke-miterlimit="50" stroke-width="2" d="M21.8 17v-2"/><path xmlns="http://www.w3.org/2000/svg" fill="none" stroke="#00b956" stroke-miterlimit="50" stroke-width="2" d="M25.8 20v-8"/>
		</symbol>
		<symbol id="img-group-26">
			<path xmlns="http://www.w3.org/2000/svg" fill="#00b956" d="M24.5 12.8l1.2-1.6c-2.3-1.8-5.8-1.5-7.8.6-1.2 1.1-1.8 2.6-1.8 4.2s.6 3.1 1.8 4.3c1.1 1.1 2.6 1.8 4.2 1.8 1.3 0 2.6-.4 3.6-1.2l.4-.3v-5.5h-4v2h2v2.5c-1.5.9-3.6.6-4.8-.6-.8-.9-1.2-1.9-1.2-3s.4-2.1 1.2-2.8c1.3-1.4 3.7-1.6 5.2-.4zM14.1 22v-2h1v-2h-1v-3h-2v3H8.4l2.5-7.7L9 9.7l-2.7 8.4-.2.6L7 20h5.1v2zm19-10h-2v3h-3v2h3v3h2v-3h3v-2h-3zM30 8c-2.9-4.9-8.2-8-13.9-8C7.3 0 0 7.2 0 16s7.2 16 16 16c5.7 0 11-3.1 13.9-8l-1.7-1c-2.5 4.3-7.1 7-12.1 7-7.7 0-14-6.3-14-14s6.3-14 14-14c5 0 9.6 2.7 12.1 7z"/>
		</symbol>
		<symbol id="img-mask">
			<path xmlns="http://www.w3.org/2000/svg" fill="#00b956" d="M17.476 32C8 32 0 24 0 14.525v-.968L3.557 10l6.675 6.83-2.776 2.777c1.239 2.146 2.791 3.544 4.938 4.783l2.776-2.776 6.83 6.83L18.443 32zM2 14.525C2 23.012 9.059 30 17.476 30h.139l1.557-1.556-4.002-4.002-2.404 2.404-.648-.33c-3.01-1.535-5.253-3.624-6.788-6.634L5 19.235l2.404-2.405-3.847-4.002L2 14.385zM13 8V6c7.168 0 13 5.832 13 13h-2c0-6.065-4.935-11-11-11m0 6v-2c3.859 0 7 3.141 7 7h-2c0-2.757-2.243-5-5-5m0-12V0c10.477 0 19 8.523 19 19h-2c0-9.374-7.626-17-17-17"/>
		</symbol>
		<symbol id="img-mask-(1)">
			<path xmlns="http://www.w3.org/2000/svg" fill="#00b956" d="M2 12h24v6H2zm3-6c0-2.2 1.8-4 4-4s4 1.8 4 4v4H9c-2.2 0-4-1.8-4-4zm14-4c2.2 0 4 1.8 4 4s-1.8 4-4 4h-4V6c0-2.2 1.8-4 4-4zm5 28h-9V20h9zM4 20h9v10H4zm22 12V20h2V10h-4.6c1-1.1 1.6-2.5 1.6-4 0-3.3-2.7-6-6-6-2.1 0-3.9 1.1-5 2.7C12.9 1.1 11.1 0 9 0 5.7 0 3 2.7 3 6c0 1.5.6 2.9 1.6 4H0v10h2v12z"/>
		</symbol>
</svg>